<svg width="26" height="26" viewBox="0 0 26 26" fill="none" xmlns="http://www.w3.org/2000/svg">
<path d="M21.3958 23.8333H4.60417C3.26084 23.8333 2.16667 22.7392 2.16667 21.3958V4.60416C2.16667 3.26082 3.26084 2.16666 4.60417 2.16666H21.3958C22.7392 2.16666 23.8333 3.26082 23.8333 4.60416V21.3958C23.8333 22.7392 22.7392 23.8333 21.3958 23.8333ZM4.60417 3.79166C4.15567 3.79166 3.79167 4.15674 3.79167 4.60416V21.3958C3.79167 21.8432 4.15567 22.2083 4.60417 22.2083H21.3958C21.8443 22.2083 22.2083 21.8432 22.2083 21.3958V4.60416C22.2083 4.15674 21.8443 3.79166 21.3958 3.79166H4.60417Z" fill="black"/>
<path d="M18.4167 9.35999H7.58334C7.13484 9.35999 6.77084 8.9949 6.77084 8.54749C6.77084 8.10007 7.13484 7.73499 7.58334 7.73499H18.4167C18.8652 7.73499 19.2292 8.0979 19.2292 8.54749C19.2292 8.99707 18.8652 9.35999 18.4167 9.35999ZM18.4167 13.8125H7.58334C7.13484 13.8125 6.77084 13.4485 6.77084 13C6.77084 12.5515 7.13484 12.1875 7.58334 12.1875H18.4167C18.8652 12.1875 19.2292 12.5515 19.2292 13C19.2292 13.4485 18.8652 13.8125 18.4167 13.8125ZM13 18.265H7.58334C7.13484 18.265 6.77084 17.9021 6.77084 17.4525C6.77084 17.0029 7.13484 16.64 7.58334 16.64H13C13.4485 16.64 13.8125 17.0051 13.8125 17.4525C13.8125 17.8999 13.4485 18.265 13 18.265Z" fill="black"/>
</svg>
